<svg xmlns="http://www.w3.org/2000/svg" viewBox="0 0 960 420" role="img" aria-labelledby="title desc">
  <title id="title">城市控制台</title>
  <desc id="desc">暗色城市剪影、霓虹线路和警报式控制台图形。</desc>
  <defs>
    <linearGradient id="sky" x1="0" x2="1" y1="0" y2="1">
      <stop offset="0" stop-color="#121722"/>
      <stop offset="0.45" stop-color="#071016"/>
      <stop offset="1" stop-color="#14090d"/>
    </linearGradient>
    <linearGradient id="pulse" x1="0" x2="1">
      <stop offset="0" stop-color="#55d69a"/>
      <stop offset="0.52" stop-color="#f6b94b"/>
      <stop offset="1" stop-color="#ff4d5f"/>
    </linearGradient>
    <filter id="glow" x="-20%" y="-20%" width="140%" height="140%">
      <feGaussianBlur stdDeviation="5" result="blur"/>
      <feMerge>
        <feMergeNode in="blur"/>
        <feMergeNode in="SourceGraphic"/>
      </feMerge>
    </filter>
    <pattern id="grid" width="40" height="40" patternUnits="userSpaceOnUse">
      <path d="M40 0H0V40" fill="none" stroke="#ffffff" stroke-opacity=".07" stroke-width="1"/>
    </pattern>
  </defs>
  <rect width="960" height="420" fill="url(#sky)"/>
  <rect width="960" height="420" fill="url(#grid)" opacity=".9"/>
  <path d="M0 302h70v-68h38v-44h65v78h45V154h86v148h52V208h84v94h38V120h92v182h48v-62h78v62h37V176h76v126h151v118H0z" fill="#05070a"/>
  <path d="M0 302h70v-68h38v-44h65v78h45V154h86v148h52V208h84v94h38V120h92v182h48v-62h78v62h37V176h76v126h151" fill="none" stroke="#45c7d8" stroke-opacity=".20" stroke-width="2"/>
  <g opacity=".72">
    <rect x="84" y="208" width="12" height="18" fill="#f6b94b"/>
    <rect x="240" y="178" width="12" height="24" fill="#55d69a"/>
    <rect x="526" y="150" width="12" height="22" fill="#ff4d5f"/>
    <rect x="760" y="202" width="12" height="20" fill="#45c7d8"/>
    <rect x="800" y="230" width="12" height="18" fill="#f6b94b"/>
  </g>
  <g filter="url(#glow)">
    <path d="M84 330c60-52 111-52 154 0s93 52 150 0 112-52 168 0 106 52 162 0 106-52 158 0" fill="none" stroke="url(#pulse)" stroke-width="5" stroke-linecap="round"/>
    <circle cx="84" cy="330" r="8" fill="#55d69a"/>
    <circle cx="390" cy="330" r="8" fill="#f6b94b"/>
    <circle cx="718" cy="330" r="8" fill="#ff4d5f"/>
  </g>
  <g transform="translate(650 54)">
    <rect width="230" height="116" rx="8" fill="#06080c" stroke="#ffffff" stroke-opacity=".18"/>
    <path d="M24 74h182" stroke="#ffffff" stroke-opacity=".13"/>
    <path d="M24 42h54l18 20 26-42 32 54 16-24h36" fill="none" stroke="#55d69a" stroke-width="4" stroke-linecap="round" stroke-linejoin="round"/>
    <circle cx="28" cy="92" r="5" fill="#55d69a"/>
    <circle cx="48" cy="92" r="5" fill="#f6b94b"/>
    <circle cx="68" cy="92" r="5" fill="#ff4d5f"/>
  </g>
  <g opacity=".7">
    <path d="M132 92h148M132 116h92M132 140h184" stroke="#ffffff" stroke-opacity=".20" stroke-width="6" stroke-linecap="round"/>
    <path d="M132 176h74M132 200h118" stroke="#45c7d8" stroke-opacity=".35" stroke-width="5" stroke-linecap="round"/>
  </g>
  <rect y="386" width="960" height="34" fill="#030405" opacity=".82"/>
  <path d="M0 386h960" stroke="#ffffff" stroke-opacity=".12"/>
</svg>
